<?xml version="1.0" encoding="UTF-8"?> <svg xmlns="http://www.w3.org/2000/svg" id="_Слой_2" data-name="Слой 2" viewBox="0 0 289.27 471.94"><defs><style> .cls-1 { fill: #611884; } </style></defs><g id="_Слой_1-2" data-name="Слой 1"><g id="pzlDZj"><path class="cls-1" d="M228.85,152.67c.06-.04.09-.94.55-1.42,18.44-18.89,55.55-10.12,55.86,17.66.04,3.9-2.3,11.18-2.03,14.27.07.84,2.79,5.07,3.34,7.21.96,3.71,1.13,8.18.15,11.89-.46,1.76-2.56,4.75-2.56,5.95,0,1.78,3.36,7.85,3.4,11.99s-2.82,9.87-2.83,11.94c0,1,2.64,5.66,3.22,7.57,1.8,5.95,1.79,9.58-.15,15.49-.59,1.78-4.01,7.81-4.03,8.27-.05.96,2.58,6.5,3.03,8.73,1.44,7.11.89,12.24-1.83,18.91-.75,1.83-4.03,6.84-4.18,7.83-.14.89,1.94,7.06,2.13,9.06.56,5.88-.39,12.36-2.51,17.87-.83,2.17-5.67,9.4-5.73,9.97-.1.92.83,2.69.89,4,.54,12.17-2.92,20.38-14.2,25.7,3.35,16.79-5.42,34.39-24.45,32.78-4.85,12.24-18.72,17.89-31.05,18.8-6.38,8.75-15.85,13.31-26.78,12.54-5.34,7.11-12.76,12.13-21.98,11.93-2.16,7.47-4.76,22.9-10.51,28.24-4.15,3.85-12.47,1.86-16.35-1.77-7.94-7.45-4.3-17.4-8.63-25.56-1.25-2.35-3.51-4.6-4.92-7.05-7.73-13.42-6.46-28.15,2.11-40.83-2.99-2.84-5.64-5.34-7.34-9.21-8.78.05-17.53-1.89-23.36-8.82,3.16,7.89,7.82,17.08,4.2,25.58-2.75,6.47-6.95,3.68-12.34,1.64-7.48-2.83-14.43-7.29-19.19-13.81-23.74,6.09-40.87-19.12-31.89-40.4-12.15-6.35-19.36-15.77-16.32-30.02.64-3,2.23-5.47,2.55-8.47-14.39-5.57-20.71-26.68-9.13-38.02-7.49-10.02-7.81-23.6-.09-33.55-8.79-9.66-6.79-22.61.98-32.2.66-.82,2.49-1.72,2.59-2.1.59-2.17-.2-5.53.73-8.83.92-3.27,4.4-6.9,4.84-8.83.5-2.19-.11-4.97.13-7.28,1.86-18.02,14.46-22.22,30.47-22.51,6.87-.12,13.74-1.27,20.69.39,1.14.27,2.07,1.09,3.23,1.31,1.42-.28.71-4.67.88-5.97,5.48-43.19,27.06-42.21,63.51-45.32,15.04-1.28,34.66-13.88,44.15-25.36,11.8-14.27,4.6-19.32-.24-33.34-5.83-16.87-6.5-34.63,4.52-49.51l8.11,6.51c-8.28,12.32-7.34,27.27-2.68,40.75.91.66,5.74-5.12,6.82-5.99,17.23-13.85,47.93-10.91,62.41,5.98,25.62,29.91,10.14,80.28-23.13,97.68l-14.2,7.74h9.12ZM128.19,147.34c4.33,3.78,12.67,7.51,18.39,8.11,32.11,3.37,86.78-11.59,104.01-41.14,18.73-32.1,4.98-81.28-39.42-69.62-6.21,1.63-10.35,3.95-14.53,8.83-5.44,6.35-2.68,4.35-1.99,11.12,2.19,21.43-21.84,39.76-39.09,48.07-19.24,9.27-40,3.28-58.33,11.19-13.82,5.96-16.85,26.3-17.1,39.59l8.55-.58c-3.21-11.3,7.67-26.82,19.66-26.82,5.02,0,12.79,4.18,16.54,7.43,1.28,1.12,2.35,2.95,3.32,3.8ZM143.38,165.21c-7.48-1.09-15-4.92-20.78-9.71-4.91-4.07-10.8-12.71-17.98-7.12-4.73,3.69-6.95,11.53-3.65,16.78.41.66,5.29,4.36,5.65,4.4.69.08,4.95-1.71,6.32-2.04,6.73-1.61,13.5-2.37,20.46-1.75,3.48.31,7.94,3.29,9.98-.57ZM248.03,384.38c2.1-2.14,3.5-8.07,3.57-11.01.06-2.74-1.75-8.86-1.23-10.85.12-.48,3.01-5.65,3.26-5.87.95-.85,2.75-.55,4.03-1.1,5.39-2.32,7.61-6.48,7.7-12.29.04-2.33-1.04-4.16-1.18-6.28-.48-6.91,3.42-8.27,5.81-13.55,2.14-4.75,2.74-10.84,2.11-16-.3-2.46-2.07-5.03-2.2-6.97-.44-6.72,6.07-11.24,6.82-18.16.85-7.78-1.46-9.42-2.73-15.51-1.48-7.16,2.06-8.78,4.14-14.41,1.69-4.58,1.27-7.33-.74-11.78-.78-1.73-3.29-4.43-3.52-5.6-1.19-6.23,3.37-8.74,2.86-15.4-.31-4.03-3.4-7.54-3.5-10.22-.04-1,.46-4.69.77-5.57.45-1.29,2.18-2.34,2.58-4.26,1.57-7.59-4-10.48-4.27-15.92-.12-2.48,2.02-8.82,2.01-12.44-.07-16.15-16.09-23.47-30.07-18.22-5.71,2.14-5.49,4.69-8.84,7.69-.37.33-5.53,3.23-5.85,3.31-1.31.32-7.59-1.3-11.09-.88-6.69.8-11.75,6.39-16.83,6.53-2.21.06-4.57-1.28-6.75-1.5-8.25-.83-11.74,6.18-18.81,6.15-2.3,0-5.53-2.07-8.07-2.64-7.7-1.72-13.4-.43-19.92,3.7-4.44,2.82-4.13,4.25-10.82,3.97-.83-.03-3.84-2-5.29-2.41-3.87-1.1-8.62-.78-12.57-.03-5.96,1.13-9.91,4.77-16.18,3.14-1.39-.36-3.58-2.84-5.27-3.84-3.93-2.34-7.87-3.24-12.45-2.99-4.97.27-7.42,2.56-12.95,1.04-2.01-.55-3.32-2.8-5.14-3.97-3.72-2.4-8.11-3.24-12.5-2.59-1.98.29-4.28,1.88-5.36,1.99-1.8.18-5.67-1.84-9.53-1.49-13.89,1.23-16.24,11.4-13.55,23.46-6.85,5.09-8.22,11.26-5.05,19.16-13.28,3.35-15,20.73-1.77,25.95-.98,1.28-2.29,8.82-2.88,9.32-.36.3-2.03.11-2.93.63-.41.24-2.01,3.01-2.23,3.61-2.79,7.86-.03,17.69,9.25,18.65l-.57,10.25c-8.48-.53-10.88,6.58-8.85,13.68,2.43,8.52,12.25,11.77,20.24,12.53-3.55,6.39-9.97,15.32-9.07,23.01,1.04,8.94,16.41,14.1,23.89,15.73-3.36,4.33-7.58,7.34-8.96,12.97s-.16,11.46,3.36,16.27c6.84,9.34,14.76,6.99,24.59,4.43,4.1,5.27,6.74,10.04,12.75,13.5.58.34,5.18,3.13,4.68,1.03-1.49-6.32-4.81-10.88-6.89-16.48-2.41-6.48,1.37-5.35,4.97-8.92,9.41-9.33,4.27-27.98-10.51-26.29l-2.88-9.37c.06-1.12,4.37-4.53,4.97-7.51,2.37-11.66-6.28-15.7-15.54-18.96l-3.47-6.25c1.16-6.86,5.88-15.02-.54-20.52-2.74-2.35-4.68-1.58-6.23-5.15-3.37-7.74-.03-5.77.78-11.72.99-7.26-.5-10.6-5.68-15.32-.57-.52-1.77-.6-2.11-1.01-.25-.3-1.72-6.44-1.74-7.15-.05-1.33,3.86-7.88,4.31-10.79.58-3.74-.56-8.76.85-12.25.64-1.59,2.8-2.8,3.46-5.09.71-2.45-.07-4.91.51-6.9.43-1.49,3.96-4.66,4.55-6.55,2.72-.33,5.9-.34,8.57-.84,4.79-.9,9.23-4.2,14.28-1.02.61.38.82,1.5,1.5,2.05,6.49,5.14,11.42,5.5,18.96,1.81,4.52-2.21,4.61-4.23,10.96-3.22,2.62.42,4.31,3.52,6.31,5.08,7.31,5.71,14.07,4.37,21.65.03,1.19-.68,2.71-2.49,3.53-2.74.72-.22,5.39-.81,6.16-.75,1.61.13,4.72,3.04,6.97,3.91,8.41,3.25,15.52.82,21.82-5.26,1.06-1.02,1.58-2.72,2.21-3.34.49-.48,6.8-1.64,7.69-1.53,1.44.18,4.31,3,6.7,3.6,5.92,1.49,9.97-1.26,13.38-5.78l6.86-1.09c10.35,8.33,21.61,7.09,27.31-5.32l9.9,3.47c-1.76,4.86-3.09,10.5-.86,15.38,1.52,3.33,4.59,4.34,5.31,9.55.35,2.52-2.08,6.66-2.05,10.1.04,4.11,2.83,7.93,3.03,10.23.06.71-.24,5.66-.4,6.19-.34,1.11-1.52,1.14-1.98,1.72-5.47,6.92-3.89,12.04,1.5,18.34.64.75,2.82,2.15,2.88,2.38.22.89.17,5.65.02,6.75-.31,2.36-3.07,3.75-4.49,5.77-2.71,3.88-3.56,8.07-2.69,12.74.57,3.07,4.84,9.03,4.77,10.36-.03.59-1.37,6.61-1.56,6.91-.37.6-1.85.82-2.62,1.51-5.7,5.06-7.06,8.87-5.84,16.68.33,2.11,3.29,7.59,3.19,8.53-.05.51-2.1,6.84-2.33,7.13-.36.44-3.81,1.71-4.95,2.74-5.61,5.04-1.01,12.15-2.94,17-2.63,6.57-6.88,5.19-10.19,9.74-1.54,2.11-1.75,5.04-3.13,6.56-4.63,5.11-12.63,2.39-19.29,6.92-5.86,3.98-6.82,11.97-13.47,13.92-1.29.38-6.15-.03-8.68.4s-9.04,3.29-9.8,3.26c-1.03-.05-6.59-3.29-8.59-4-13.71-4.86-26.78-1.7-34.6,11.01-12.29,19.98,5.65,28.97,8.59,46.9.64,3.89-.54,10.76,5.17,11.58,4.04-9.85,6.76-20.21,8.63-30.68,3.33,0,6.57.84,9.94.54,6.82-.62,11.69-6.16,13.91-12.3,7.38,0,15.31,1.27,21.39-4.25,1.52-1.38,2.1-3.27,3.43-4.55,4.31-4.16,9.18-2.99,14.4-4.4,2.92-.79,7.6-2.98,10-4.82,4.65-3.57,5.05-10.41,10.66-12.7,2.13-.87,3.13.31,4.82.26,2.95-.08,8.27-2.06,10.35-4.18ZM182.69,203.37c-2.9-4.09-4.96.65-7.45,2.52l-7.92,4.88c1.09.06,1.59,1.3,2.81.89,3-1.01,8.3-8,12.57-8.3ZM69.81,230.1c.62-7.44,3.16-14.41,4.94-21.58l-6.31-4.57-11.64,2.31c1.78,4.25-4.37,11.01-4.58,13.39-.09,1.03.68,2.22.61,3.4-.08,1.4-1.34,6.48-.95,7.12,1.23,2.01,7.85-.53,10.28-.6,2.7-.08,5.01.87,7.65.53ZM121.15,214.21c-7.09-.37-13.44-3.57-18.51-8.39l-3.09,1.93c1.18,11.45,7.03,21.28,15.62,28.67.22-4.15.48-8.06,1.58-12.09,1.03-3.76,2.74-6.7,4.39-10.13ZM187.25,246.11c19.08.59,49.64-3.53,46.73-29.35-1.04-9.23-13.19-11.38-20.8-11.1-12.15.45-24.58,5.79-34.48,12.54,7.08,7.31,10.31,17.85,8.55,27.91ZM89.17,211.43h-3.27c-4.46,10.74-5.78,21.94-5.21,33.54-7.86-2.75-18.97-7.97-26.13-1.35,4.19,7.3,5.68,16.08,1.78,23.86,10.76,6.45,12.15,17.77,8.53,29.08l3.58,1.96c1.49-6.05,4.58-11.13,9.39-15.1-13.34-10.65-9.58-33.2,6.68-38.9,7.33-2.57,15.53-2.2,22.94-.13l-5.66-6.15c-6.67-7.63-10.47-17-12.64-26.82ZM175.85,252.95c2.75-12.04,2.72-22.6-8.12-30.33-8.26-5.88-31.94-10.99-38.5-.63-4.51,7.11-3.33,17.32-.06,24.67,15.97-3.85,32.05-.4,46.69,6.29ZM237.97,268.91l4.51-5.91c-5.29-5.29-7.3-12.97-6.81-20.3-5.32,4.8-11.67,8.85-18.79,10.26l8.53,2.57c5.48,2.21,11.12,7.63,12.55,13.38ZM94.09,276.31c3.98-.47,8.75.35,12.82,0l-1.14,10.25c-10.53-.79-29.99,3.78-25.82,18.14.61,2.11,5.57,9.47,7.82,9.24.38-.04,4.52-4.67,5.47-5.45,12.16-10.05,24.29-17.12,40.74-15.65,14.51,1.29,28.67,14.71,34.78,27.35,17.45-10.87,42.18-18.01,61.24-7.42-1.54-13.55-15.09-14.93-26.21-14.81l-1.14-10.25,5.35-.52,13.69,1.63c11.82-5.17,9.64-22.15-3.42-23.86-13.17-1.73-21.02,3.98-32.71,7.08-4.88,1.29-9.98,2.22-15.04,2.6l-1.47-10.27,3.97-1.16c-8.68-4.04-18.45-7.69-28.18-8.01-10.51-.35-25.17,2.98-18.29,16.58,6.98,13.79,34.82,15.07,48.21,15.03l1.11,10.58c-18.88.07-50.17-2.2-59.27-21.93-3.64-7.9-3.27-15.94,2.18-22.81l-4.74-3.68-2.6,6.79c-7.48-1.38-17.19-4.3-24.41-.77-4.9,2.39-7.91,8.01-6.76,13.49.49,2.36,4.89,8.69,7.25,9.28,1.9.48,4.93-1.27,6.58-1.47ZM195.8,256.37h-14.24c3.04,3.13,4.79,5,9.11,2.56l5.14-2.56ZM237.39,288.85c-.8-.16-.73-.11-1.18.37-1.27,1.32-2.43,3.78-3.9,5.13l3.66,4.75,4.17-3.68-2.75-6.56ZM155.34,318.47c-8.17-11.9-19.53-17.97-34.19-14.53-10.49,2.46-30.46,17.55-33.22,28.31-1.05,4.11,1.71,4.65,3.84,7.92.81,1.25,3.53,7.72,4.11,7.89,5.79-.96,11.47-1.56,17.3-.53-4.05-12.77,2.94-26.92,16.07-30.36,8.63-2.26,17.58-.53,26.09,1.3ZM179.84,326.46h11.68c1.37,0,5.92-2.64,7.12-2.03l5.13,8.86c-10.34,5.16-20.96,4.41-31.91,2.01-12.52-2.74-29.5-13.25-41.98-7.24-10.08,4.86-8.7,18.3.68,23.25,2.6-1.11,17.28-3.27,18.43-1.41l-.48,10.18c-10.02-.55-21.56,1.51-26.67,11.22-2.98,5.65-.55,12.54,5.31,14.98,10.22-7.25,22.3-9.96,34.58-6.66,2.34.63,8.83,4.12,9.85,4.16,1.1.04,5.48-1.7,7.48-1.98s4.08.16,6.1-.16c4.49-6.8,9.54-12.72,17.5-15.55,2.48-.88,9.03-1.53,10.21-2.33.62-.42,3.68-6.55,5.41-8.26,1.5-1.48,4.83-2.94,5.74-3.95.34-.38.57-1.03-.01-1.15-14.24,8.36-31.37,9.57-47.58,9.11l.57-10.26c13.8.26,38.14-.92,47.28-12.83,3.45-4.49,5.42-11.45-.02-15.33-9.43-6.72-34.28-1.95-43.67,4.1-.56.36-1.01-.07-.73,1.28ZM117.16,358.94c-6.54-1.31-13.25-1.69-19.84-.48-.54,2.93-2.33,6.11-1.54,9.04,1.43,5.33,9.75,7.3,14.55,7.39-.26-2.7.5-5.37,1.6-7.8,1.38-3.05,3.98-5.13,5.24-8.15Z"></path></g></g></svg> 