<?xml version="1.0" encoding="UTF-8"?> <svg xmlns="http://www.w3.org/2000/svg" id="_Слой_2" data-name="Слой 2" viewBox="0 0 276.79 578.71"><defs><style> .cls-1 { fill: none; stroke: #611884; stroke-linecap: round; stroke-miterlimit: 10; stroke-width: 15px; } </style></defs><g id="_Слой_1-2" data-name="Слой 1"><g><path class="cls-1" d="M53.98,38.51c2.25,5.81,6.57,14.88,14.62,23.61,2.67,2.9,13.26,13.89,30.63,19.32,6.5,2.03,14.5,2.29,30.51,2.82,17.69.58,26.53.87,37.44-1.07,13.28-2.36,20.82-3.71,28.99-9.93,11.72-8.93,18.74-23.32,21.43-28.85,1.19-2.44,2.07-4.51,2.65-5.9"></path><path class="cls-1" d="M269.29,31.32c-.9.38-1.75.79-1.88.86-7.23,3.48-11.2,7.64-14.53,10.68-8.34,7.62-22.29,17.11-24.52,20.16-1.08,1.48-1.93,3.06-1.93,3.06s-.45.83-.83,1.69c-3.28,7.35-4.05,15.31-4.05,15.31-.17,1.7-2.82,11.51-8.14,31.12-5.71,21.06-13.59,37.37-22.98,56.81-8.36,17.31-12.54,25.97-17.73,33.11-1.54,2.12-12.92,17.65-19,28.04-1.6,2.73-4.85,8.57-6.33,16.83-.04.22-.13.73-.26,1.6-1.41,9.43-1.12,18.44-1.09,25,.06,12.43-.81,15.28-.73,26.96.05,6.97.19,10.79.19,10.79.1,2.58.19,4.13.25,7.08.05,2.57.04,4.79,0,7.48-.11,7.19-.31,8.64-.48,16.09-.14,6.31-.07,8.59.13,11.03.23,2.87.41,5.01,1.09,7.6.32,1.21,1.34,4.79,5.25,10.68,3.63,5.47,5.09,5.91,10.86,13.39,3.24,4.2,4.86,6.3,5.61,7.96,1.82,4.04,2.28,8.46.72,19.18-1.36,9.35-3.02,15.09-4.7,22.26-.92,3.9-2.12,10.22-4.52,22.87-2.88,15.19-4.66,24.57-6.52,37.02-2.06,13.8-1.25,11.56-3.44,26.05-1.38,9.14-.93,18.66-3.62,27.5-.54,1.78-2.22,7.02-.69,13,1.13,4.44,3.23,6.14,3.72,6.53,2.59,2.01,5.98,2.89,8.21,1.45,1.63-1.05,3.95-2.9,5.54-6.22,1.14-2.37,2.09-4.34,2.9-7.78,2.17-9.19,2.19-23.79,2.41-30.25.07-2.12.98-8.91,2.78-22.49,2.17-16.32,3.25-24.48,4.8-32.1,2.39-11.73,4.99-20.63,6.7-26.41,3.23-10.93,3.84-12.26,5.81-17.44.44-1.17,2.5-6.66,3.73-9.89.12-.33.38-.95.59-1.45,1.39-3.33,1.36-5.46,2.13-7.74,3.22-9.61,4.41-10.36,4.8-14.66.19-2.15.43-5.17-.88-8.59-1.4-3.62-3.78-5.73-6.32-7.96-5.98-5.27-11.37-8.47-11.37-8.47-.44-.26-2.88-1.7-3.29-3.79-.05-.27-.22-1.14.25-1.64.44-.47,1.22-.39,1.39-.38,1.86.12,8.69-3.05,14.15-8.21,2.14-2.02,6.23-5.98,8.47-12.38,1.17-3.36,1.49-6.4,1.64-7.96.43-4.39,0-7.73-.13-8.85-1.57-12.83-3.01-25.74-3.03-38.67-.05-27.09-.34-26.27-.56-33.44-.01-.34.5-1.79,1.06-3.08.3-.69.66-1.14.76-1.26,4.28-5.49,7.44-11.78,11.5-17.44,4.14-5.77,13.42-18.73,20.22-29.57,6.15-9.81,12.27-19.56,17.56-33.74,2.95-7.89,6.89-18.68,7.96-33.36.83-11.32-.32-21.26-.88-25.4-.83-6.06-1.31-6.21-3.29-18.7-.84-5.3-1.44-9.99.05-19.62.8-5.18,2.13-8.15,2.44-9.98,1.16-6.8,2.15-11.44,3.94-16.3.88-2.38,1.39-3.85,2.1-5.46,1.44-3.23,2.94-5.81,4.13-7.66"></path><path class="cls-1" d="M14.56,9.09c7.21,3.98,8.39,6.09,19.88,15.01,10.19,7.91,15.41,11.92,21.01,14.16,9.71,3.89,18.29,3.88,21.95,3.85,6.93-.07,8.53-1.27,27.29-5.53,12.92-2.94,19.51-4.41,25.6-4.78,10.01-.61,17.91.55,24.1,1.5,10.44,1.59,11.61,2.97,26.92,5.91,9.97,1.91,15.06,2.87,19.88,2.63,11.14-.55,19.4-4.65,22.98-6.47,3.94-2,9.34-6.24,19.98-14.63,12.94-10.21,13.71-11.35,17.91-13.22"></path><path class="cls-1" d="M7.5,32.27c5.4,4.32,9.49,14.21,11.21,19.18,1.69,4.9,2.69,9.6,3.36,15.39.22,1.85.13,3.11-.25,6.95-.96,9.69-1.44,14.54-2.27,19.84-1.97,12.49-2.46,12.64-3.29,18.7-.57,4.13-1.71,14.08-.88,25.4,1.07,14.68,5.02,25.47,7.96,33.36,5.3,14.18,11.41,23.93,17.56,33.74,6.8,10.84,16.08,23.79,20.22,29.57,4.06,5.66,7.21,11.95,11.5,17.44.1.12.45.57.76,1.26.56,1.29.52,2.44.51,2.78-.22,7.17.44,16.68,0,33.74-.34,12.92-1.47,25.83-3.03,38.67-.14,1.11-.56,4.45-.13,8.85.15,1.56.47,4.6,1.64,7.96,2.24,6.4,6.33,10.36,8.47,12.38,5.46,5.17,12.29,8.34,14.15,8.21.17-.01.95-.09,1.39.38.47.5.31,1.37.25,1.64-.41,2.09-2.84,3.53-3.29,3.79,0,0-5.4,3.2-11.37,8.47-2.53,2.23-4.92,4.34-6.32,7.96-1.32,3.42-1.08,6.44-.88,8.59.47,5.22,2.68,6.08,4.8,14.66.98,3.96,1.46,5.66,2.4,8.85.47,1.58,1.01,2.43,4.04,10.24,1.74,4.47,3.21,8.74,5.81,17.44,4.01,13.39,6.21,24,6.7,26.41,1.23,6.05,2.42,14.73,4.8,32.1,2.26,16.49,2.62,20.53,2.78,22.49.96,11.55,1.12,22.28,1.14,23.25.03,2.45,1.53,12.15,1.53,12.15.19.64.9,4.42,4.31,5.89.37.16,5,2.18,8.88-.19,1.18-.72,2.75-2.13,4.41-7.52,2.21-7.17,2.05-13.14,2.03-13.56-.5-13.95-2.69-25.97-2.71-26.11-1.62-8.9-2.88-17.87-4.41-26.79-5.78-33.72-4.17-23.94-6.44-37.3-3.08-18.09-2.99-18.13-3.73-21.02-1.88-7.39-4.12-13.66-6.1-24.75-1.11-6.23-1.37-9.62-.34-13.56,1.08-4.15,3.06-6.87,6.44-11.53,3.57-4.92,4.5-5.02,10.85-12.89,4.19-5.2,5.94-7.82,6.78-11.53.72-3.14.47-5.64.34-7,0,0-.56-8.9-.84-28.06-.13-9.09,0-6.58.32-25.6.07-4.16.16-9.81.04-17.28-.07-4.62-.16-5.48-.19-10.11-.06-8.86.5-12.85.46-14.12-.07-2.33.88-6.55-.36-11.48-.06-.25-.11-.43-.17-.62-2.18-7.85-7.41-16.78-8.84-19.2-4.03-6.81-6.56-10.7-6.56-10.7-9.49-14.63-12.53-17.55-17.54-25.56-2.38-3.8-5.45-10.31-11.6-23.31-7.41-15.67-11.11-23.5-14.3-31.87-4.5-11.78-7.03-20.95-10.14-32.32-7.4-27.06-4.49-24.74-8-32.87-.6-1.39-14-31.19-43.89-40.83"></path></g></g></svg> 