<?xml version="1.0" encoding="UTF-8"?> <svg xmlns="http://www.w3.org/2000/svg" id="_Слой_2" data-name="Слой 2" viewBox="0 0 212.42 229.97"><defs><style> .cls-1 { fill: #611884; } </style></defs><g id="_Слой_1-2" data-name="Слой 1"><g id="jMPU6D"><path class="cls-1" d="M190.81,149.94c-.64.76-1.23,1.41-1.78,2.03-1.95,2.18-3.64,4.07-5.29,7.8-8.39,18.99-2.88,50.4-.13,63.02.36,1.62.76,3.23,1.15,4.79.2.81.4,1.6.59,2.39h-10.3c-2.09-8.65-3.5-15.98-4.43-22.9-3.22-24.05-1.42-42.62,5.35-55.2,1.6-2.98,3.81-5.49,6.14-8.14,1.55-1.77,3.14-3.59,4.62-5.61,16.21-22.25,19.56-49.84,9.18-75.7-10.9-27.16-34.44-46.44-62.95-51.57-17.59-3.16-35.35-1.25-51.35,5.52-16.14,6.82-29.73,18.28-39.3,33.14-7.08,11-15.9,24.69-15.8,38.57.1,12.8-2.69,21.4-9.63,29.66-.4.49-.95,1.07-1.53,1.68-2.63,2.79-5.91,6.27-5.57,10.43.17,2.19,1.32,4.12,3.4,5.72,1.75,1.34,3.51,1.75,4.92,2.08,1.8.42,2.08.48,2.47,1.76.73,2.39.48,7.29-.23,9.91-.2.72-.51,1.49-.98,2.4l-.37.73.05.82c.03.62.07,1.25,1.9,3.35.3.35.84.86,1.79,1.73.09.09.2.19.3.29,0,.02,0,.04-.02.07-1.77,4.83-.6,8.88,3.26,11.56.09,1.95.11,4.12-.08,6.33-.12,1.39-.34,3-.67,4.94-.06.39-.25,1.08-.42,1.74-.43,1.61-.71,2.74-.72,3.7-.05,4.7,6.05,8.88,8.27,9.87,3.96,1.77,8.98,1.6,13.41,1.46,1.81-.06,3.52-.11,5.01-.04,7.19.36,14.32,3.73,19.05,9.01,5.2,5.8,7.33,14.2,8.78,22.69h-9.1c0-.09-.03-.17-.05-.26-.66-3.4-1.35-6.92-3.18-10.26-5.75-10.49-13.56-10.23-21.12-9.97-2.19.07-4.46.15-6.83.01-6.48-.38-13.61-4.01-18.18-9.23-2.51-2.87-5.41-7.51-4.98-13.35.08-1.09.39-2.27.71-3.51.55-2.17,1.19-4.63.83-7.37l-.1-.72-.41-.6c-1.64-2.36-2.8-4.87-3.34-7.26-.08-.37-.15-.94-.21-1.5-.1-.92-.2-1.88-.47-2.72-.2-.63-.56-1.14-1.17-1.99-.19-.27-.38-.53-.48-.7-1.45-2.66-2.18-5.37-2.07-7.62.05-.94.3-1.96.57-3.04.12-.51.25-1.02.36-1.53l.41-1.94-1.62-1.14c-3.26-2.29-7.34-6.28-8.24-12.31-.75-4.93.32-9.93,3-14.09,1.04-1.61,2.4-3.02,3.84-4.5,1.51-1.57,3.08-3.18,4.42-5.17,3.4-5.06,5.08-10.36,5.45-17.21.5-9.16,1.58-15.59,3.75-22.22,2.88-8.85,7.69-16.46,12.77-24.51l1.04-1.65C52.79,14.58,82.88-.91,119.3.04c33.74.86,63.71,18.09,80.17,46.09,19.97,33.96,16.65,73.74-8.66,103.81Z"></path></g></g></svg> 