<?xml version="1.0" encoding="UTF-8"?> <svg xmlns="http://www.w3.org/2000/svg" id="_Слой_2" data-name="Слой 2" viewBox="0 0 912.76 882.54"><defs><style> .cls-1 { fill: #611884; } </style></defs><g id="_Слой_1-2" data-name="Слой 1"><path class="cls-1" d="M0,377.63C13.21,135.05,238.11-41.09,478.3,8.35c160.48,33.03,286.4,165.07,311.19,327.25,1.14,7.48,4.1,24.01,2.75,30.69-3.03,14.9-26.06,14.57-29.1-1.66-1.86-9.9-2.14-21.34-3.92-31.7-20.92-122.17-103.88-226.66-217.89-274.52-18.12-7.61-36.86-13.97-56.07-18.28v25.38c0,23.73-27.34,43.58-49.37,45.01-22.03,1.44-56.51,1.61-78.43,0-18.95-1.39-36.05-12.71-43.91-29.99-1.28-2.82-3.49-6.2-4.58-14.12v-26.27C160.05,76.44,46.57,206.55,31.17,359.38c-22.85,226.75,171.48,430.64,401.11,403.83,1.29-.15,4.25-.49,4.97-1.46l40.79-105.94c.39-1.7-.01-1.3-1.22-1.23-29.77,1.78-62.97,1.37-91.76.04-201.91-9.33-315.63-240.33-197.91-406.38,115.43-162.83,367.2-137.2,446.07,45.98,3.56,8.27,14.76,37,14.05,44.57-1.38,14.66-22,19.26-28.47,4.58-3.99-9.05-6.17-21.63-10.23-31.62-73.96-181.99-329.1-191.48-415.99-15.34-38.57,78.19-29.12,177.93,28.24,244.19v-24.49c0-.97,3.24-7.87,4.08-9.28,5.71-9.62,16.94-14.72,27.97-14.33l-12.25-22.02c-25.07-66.11,40.22-130.52,105.98-104.21,50.55,20.22,66.16,83.64,32.71,126.24h41.85c-.48-3.75-1.58-7.27-1.82-11.09-.91-14.44-1.82-53.79,1.38-66.37,5.12-20.12,22.7-31.63,42.69-32.99,50.22-3.43,104.33,2.63,154.95.05,13.25,1.22,24.11,9.37,27.71,22.3h154.88c1.04.02,1.92-.07,2.64-.93.78-.94,3.32-9.1,4.55-11.48,15.21-29.46,45.08-34.18,75.61-31.31,9.64.91,13.09,7.56,13.8,16.48v118.45c.53,2.87,4.6,4.42,6.67,6.68,4.12,4.51,6.96,11.33,7.53,17.4,3.21,34.17-2.39,73.09.05,107.77-1.2,13.95-11.77,24.92-25.5,27.03l-118.81.51-76.54,198.17h40.51c.73,0,4.83,2.46,5.72,3.18,10.29,8.31,5.22,24.51-7.5,26.2l-579.22-.42c-11.62-3.61-14.97-18.93-4.73-26.15.91-.64,4.52-2.82,5.2-2.82h69.9v-100.63C109.87,698.82,28.72,590.94,6.51,469.51c-3.1-16.94-5.73-35.74-6.51-52.7v-39.18ZM455.88,33.89c-31.71-4.38-63.77-5.8-95.72-2.66-7.27.71-14.5,2.35-21.82,2.66.34,19.05-5.16,43.3,20.13,47.1,27.8,4.16,55.19,3.4,78.75-.3,23.72-3.73,18.19-29.32,18.66-46.8ZM279.89,404.65c-48.42,48.46,25.4,120.81,72.73,73.18,48.07-48.38-25.24-120.71-72.73-73.18ZM867.23,390.09h-12.91c-9.3,0-23.6,16.17-23.6,25.38v77.03h36.51v-102.41ZM617.93,412.36h-158.93c-4.99,0-10.26,8.59-10.26,12,.02,22.85.18,39.79.08,56.95.3,5.87,7.36,11.3,12.81,11.23h187.07c17.86-2.82,17.21-27.14-1.03-29.33l-152.44-.71c-12.41-3.86-11.88-26.82,1.38-28.72.73-.1,1.32-.06,1.57-.06h119.76v-21.37ZM801.35,433.73h-147.8l12.17,4.3c20.78,9.64,29.71,32.62,23.44,54.47h112.19v-58.77ZM882.37,521.89H250.2v49.42c38.7,32.85,87.51,51.53,138.41,53.92l493.76-.04v-103.3ZM735.46,654.57h-224.82l-77.02,198.58h224.82l77.02-198.58ZM250.2,765.88v87.27h150.92l23.59-59.65c-44.94,3.01-90.44-1.62-133.75-13.62-13.82-3.83-27.5-8.63-40.77-13.99Z"></path><circle class="cls-1" cx="702.3" cy="338.48" r="20.91"></circle><path class="cls-1" d="M102.46,359.62c0,9.88-8.03,17.91-17.91,17.91s-17.91-8.03-17.91-17.91,8.04-17.91,17.91-17.91,17.91,8.04,17.91,17.91Z"></path><path class="cls-1" d="M125.13,409.33c0,6.9-5.61,12.51-12.51,12.51h-51.25c-6.9,0-12.51-5.61-12.51-12.51s5.61-12.5,12.51-12.5h51.25c6.9,0,12.51,5.61,12.51,12.5Z"></path><rect class="cls-1" x="314.12" y="688.55" width="120.95" height="33.95" rx="16.97" ry="16.97"></rect></g></svg> 