<?xml version="1.0" encoding="UTF-8"?> <svg xmlns="http://www.w3.org/2000/svg" id="_Слой_2" data-name="Слой 2" viewBox="0 0 913.23 995.65"><defs><style> .cls-1 { fill: #611884; } .cls-2 { fill: none; stroke: #611884; stroke-linecap: round; stroke-miterlimit: 10; stroke-width: 20px; } </style></defs><g id="_Слой_1-2" data-name="Слой 1"><g><g id="rNUVDM.tif"><g><path class="cls-1" d="M399.46,692.05l-.22-1.08c7.38-.78,14.64-2.29,21.91-3.75,7.63-1.53,15.85-3.07,23.34-5.02,2.37-.62,4.32-.92,5.67-3.21,2.17-3.68-.02-7.97,1.31-11.9,1.02-3.01,7.38-4.39,10.12-5.36v15.49c0,.17.81,1.79.99,2.04,1.49,2.08,7.27,3.27,9.84,4.02,8.71,2.54,16.95,4.08,25.91,5.49,4.26.67,8.96.94,13.12,1.82.74.16,2.28.44,1.9,1.46h-113.88Z"></path><path class="cls-1" d="M571.8,416.09l-2.49,3.68c-3.09,5.69-4.58,11.98-9.53,16.46-6.81,6.16-17.77,12.51-26.15,16.29-19.89,8.96-40.66,16.18-60.7,24.84-6.2,3.28-8.61,7.73-9.79,14.47-.49,2.84.44,3.69-2.63,5.16s-6.91,2.43-10.17,3.8c-.43-3.63-.53-7.54-1.11-11.13-1.05-6.49-3.91-9.69-9.72-12.37-19.75-9.09-41.05-16.17-60.98-24.99-9.39-4.15-25.06-13.21-30.06-22.34l-7.03-13.87h230.36Z"></path><path class="cls-1" d="M552.96,410.03h-20.35c-1.03-7.15-1.73-14.42-3.89-21.34-5.2-16.61-16.56-27.99-33.23-33.03-7.19-2.18-13.21-3.26-19.88,1.13-8.26,5.44-6.75,13.53-12.81,20.11-4.27,4.64-18.02,12.13-24.09,14.45-2.32.89-6.34,1.59-8.07,2.98-1.48,1.19-2.86,3.03-4.32,4.34-6.95,6.2-15.62,9.85-25.08,7.98-9.88-1.96-12.21-9.54-19.33-14.89-2.34-1.76-5.14-3.31-7.99-4.03l.54-1.08,13.65,6.28.32-.1c-.63-1.22-2.37-2.2-2.99-3.29-.21-.38-.37-.39.07-.71,1.75,1.44,3.65,2.68,5.41,4.12,4.33,3.54,8.09,8.17,13.75,9.64,7.06,1.82,13.59-1.07,19.34-4.92.64-.43,4.44-3.09,4.59-3.43.31-.68-1.02-4.41-1.14-5.58-.24-2.55,3.43-13.81,4.54-16.78,9.49-25.39,37.49-46.41,65.38-42.12,18.42,2.83,37.93,17.8,46.83,33.94,7.89,14.3,9.38,30.22,8.76,46.36ZM439.36,370.02c-1.41,1.41.51,3.66,2.23,2.55,1.94-1.25-.56-4.22-2.23-2.55Z"></path><path class="cls-1" d="M445.14,563.39c-1.53-.44-3.27-.15-4.88-.21-12.52-.45-36.21-2.9-41.24-16.79-7.01-19.37,24.53-29.98,37.68-35.52,13.92-5.86,28.16-11.06,41.99-17.13,12.26-5.38,22.73-11.93,31.84-21.86,1.76-1.92,4.12-5.62,6.08-6.92,1.69-1.12,4.08-1.9,5.99-2.67,6.95-2.81,14.45-5.68,21.53-8.14.18-.06.52-.32.61-.04-8.48,22.04-26.04,39.49-46.05,51.4-11.72,6.97-24.5,12.5-37.25,17.32-11.75,4.44-24.8,8.02-36.07,13.3-2.78,1.3-6.21,2.57-7.3,5.69l2.89,2.13,24.19,5.04v14.4Z"></path><path class="cls-1" d="M447.31,608.87v9.31c-11.59-1.55-23.97-6.45-32.59-14.51-16.43-15.37,10.42-22.88,21.59-25.63,10.69-2.64,22.78-4.46,33.13-7.79,2.74-.88,4.79-2.59,7.22-4.06l-.14-1.71-9.29-1.76v-12.78c6.91.29,14.01.97,20.28,4.08,11.81,5.85,15.51,17.66,3.43,25.82-13.48,9.11-37.13,10.03-53.12,14.22-2.26.59-4.37,1.19-6.3,2.58-3.18,2.29-3.41,4.97.3,6.81,1.7.84,4.23,1.71,6.06,2.38,3.09,1.13,6.28,2.05,9.42,3.03Z"></path><path class="cls-1" d="M450.99,593.71l11.04-1.73c-.07,10.65.1,21.31.01,31.96,0,.62-.23,1.15-.24,1.71-.06,6.62.6,14.62.02,21.03-.14,1.5-.87,2.88-2.1,3.75l-8.73,4.8v-61.52Z"></path><path class="cls-1" d="M465.92,612.12c8.91,2.26,21.51,3.56,25.73,13.14,5.91,13.39-11.39,22.77-20.97,27.7-11.43,5.88-23.82,10.78-35.89,15.21-2.2.81-4.62,1.81-6.83,2.48-.21.06-.66.35-.8.06,7.83-3.96,15.81-7.66,23.61-11.69,10.93-5.65,21.39-10.93,29.66-20.36,10.99-12.52-4.9-16.31-14.51-18.53v-8.01Z"></path><path class="cls-1" d="M450.99,571.4v-39.31l11.26-4.66v39.96c0,.41-.83,1.78-1.4,1.85l-9.86,2.16Z"></path></g></g><g><ellipse class="cls-2" cx="456.62" cy="520.36" rx="223.86" ry="465.28"></ellipse><ellipse class="cls-2" cx="456.62" cy="520.36" rx="223.86" ry="465.28" transform="translate(-222.34 655.62) rotate(-60)"></ellipse><ellipse class="cls-2" cx="456.62" cy="520.36" rx="465.28" ry="223.86" transform="translate(-199.01 298.02) rotate(-30)"></ellipse><circle class="cls-1" cx="456.62" cy="55.08" r="55.08"></circle><circle class="cls-1" cx="55.08" cy="288.53" r="55.08"></circle><circle class="cls-1" cx="858.15" cy="288.53" r="55.08"></circle></g></g></g></svg> 