<?xml version="1.0" encoding="UTF-8"?> <svg xmlns="http://www.w3.org/2000/svg" id="_Слой_2" data-name="Слой 2" viewBox="0 0 1524.1 1599.74"><defs><style> .cls-1 { stroke-width: 31px; } .cls-1, .cls-2 { fill: none; stroke: #611884; stroke-miterlimit: 10; } .cls-2 { stroke-width: 36.89px; } .cls-3 { fill: #611884; } </style></defs><g id="_Слой_1-2" data-name="Слой 1"><g><path class="cls-3" d="M1231.05,1500.74v-39h185.5c34.28,0,71.72-44.43,69.54-78.46v-630.08c-1.76-68.83-11.92-137.18-32.02-202.98-58.56-191.72-198.84-354.26-379.49-440.51-18.59,77.48-87.44,138.68-167.99,143.07-94.98,5.18-194.62-4.02-290.09,0-79.6-5.77-148.02-64.31-166.24-141.79l-1.55-1.11C230.22,214.87,75,427.88,44.19,669.38c-3.33,26.06-4.27,50.74-5.1,76.9-6.72,212.07,2.86,425.62-1.03,637.95-1.81,33.7,35.59,77.51,69.49,77.51h190.5v39l-184.54.04c-59.59-2.72-109.89-50.44-113.51-110.49v-655.09C12.14,369.11,289.74,59.63,651.69,7.88c450.78-64.45,855.52,274.37,872.4,727.32v655.09c-3.61,60.05-53.91,107.77-113.5,110.49l-179.54-.04ZM1038.04,92.76c-122.16-49.4-255.56-65.71-386.33-45.85-56.9,8.64-112.59,24.78-165.72,46.4,11.52,68.21,69.89,117.76,138.51,121.47,89.77,4.86,183.87-3.77,274.09,0,68.91-2.44,128.57-53.85,139.44-122.03Z"></path><path class="cls-3" d="M1029.56,714.73c-5.54-21.6-8.54-33.66-26.61-48.39-29.65-24.17-64.31-18.11-99.65-18.52v37.68c11.44-.9,28.88-.3,39.29.2,18.45.89,36.61,4.47,45.5,22.5l165.96,694.54H379.05l166.71-694.79c8.24-16.72,25.37-21.27,42.75-22.25,13.37-.75,27.81-.05,41.29.94v-38.89c-36.81.27-73.16-5.36-102.76,21.48-17.72,16.05-19.67,32.83-25.31,54.69-58.12,225.32-107.67,452.96-165.68,678.32v197.5h856v-199.5c-58.04-227.45-104.14-458.17-162.49-685.51ZM1154.05,1560.74H375.05v-119h779v119Z"></path><path class="cls-3" d="M1166.03,1118.73c-2.39.31-1.59.04-2.09-1.37-5.23-14.69-6.6-33.95-11.46-49.13,120.62-195.9,73.37-451.57-106.53-592.89-211.69-166.28-519.28-111.5-662.31,114.48-90.98,143.74-93.58,330.15-4.76,475.62l-12.32,51.29c-46.46-64.25-77.23-141.67-87.36-220.64-41.89-326.34,237.95-599.71,563.19-550.19,282.32,42.99,468.33,321.09,402.18,599.85-14.84,62.54-42.46,120.18-78.53,172.98Z"></path><rect class="cls-1" x="643.25" y="607.8" width="246.47" height="114.63" rx="27.52" ry="27.52"></rect><circle class="cls-2" cx="189.35" cy="1191.8" r="72.95"></circle><rect class="cls-3" x="630.33" y="100.7" width="263.65" height="62.03" rx="31.01" ry="31.01"></rect><g><rect class="cls-3" x="1296.22" y="764.56" width="143.67" height="33.8" rx="16.9" ry="16.9"></rect><rect class="cls-3" x="1296.22" y="824.93" width="143.67" height="33.8" rx="16.9" ry="16.9"></rect><rect class="cls-3" x="1296.22" y="885.3" width="143.67" height="33.8" rx="16.9" ry="16.9"></rect><rect class="cls-3" x="1296.22" y="945.66" width="143.67" height="33.8" rx="16.9" ry="16.9"></rect></g></g></g></svg> 