<?xml version="1.0" encoding="UTF-8"?> <svg xmlns="http://www.w3.org/2000/svg" id="_Слой_2" data-name="Слой 2" viewBox="0 0 466.59 435.42"><defs><style> .cls-1 { fill: none; stroke: #611884; stroke-linecap: round; stroke-miterlimit: 10; stroke-width: 10.37px; } </style></defs><g id="_Слой_1-2" data-name="Слой 1"><g><rect class="cls-1" x="6.17" y="196.65" width="136.75" height="31.81" rx="5.4" ry="5.4"></rect><path class="cls-1" d="M454.77,320.35v45.67c0,3.45-2.79,6.24-6.24,6.24h-87.36c-3.44,0-6.24-2.79-6.24-6.24v-45.67c0-3.44,2.8-6.24,6.24-6.24h87.36c3.45,0,6.24,2.8,6.24,6.24Z"></path><rect class="cls-1" x="47.74" y="228.46" width="49.75" height="47.11" rx="3.96" ry="3.96"></rect><path class="cls-1" d="M385.24,5.18h41.67c8.38,0,15.18,6.8,15.18,15.18v62.82c0,4.37-3.55,7.92-7.92,7.92h-58.69c-4.37,0-7.92-3.55-7.92-7.92V22.88c0-9.77,7.93-17.7,17.7-17.7Z"></path><path class="cls-1" d="M374.56,89.38h60.15c14.73,0,26.69,11.96,26.69,26.69v.2c0,2.71-2.2,4.92-4.92,4.92h-103.7c-2.71,0-4.92-2.2-4.92-4.92v-.2c0-14.73,11.96-26.69,26.69-26.69Z"></path><path class="cls-1" d="M437.75,284.25h-65.8c-1.64,0-3.18.8-4.12,2.15l-13.84,19.8c-2.33,3.33.06,7.9,4.12,7.9h93.48c4.06,0,6.45-4.57,4.12-7.9l-13.84-19.8c-.94-1.35-2.48-2.15-4.12-2.15Z"></path><path class="cls-1" d="M260.78,396.65c.04,3.61-.45,5.4-1.96,6.65-5.38,4.45-11.84,5.55-20.68,5.74-3.77.07-7.97-.01-12.7-.08-7.14-.1-14.28-.05-21.42-.05-1.86,0-3.71-.01-5.57-.02-11.81-.06-22.41,0-39.52.07l-92.5-.38-33.97-.14-9.39-.04c-9.88,0-17.89-9.07-17.89-19.9v-99.9c0-7.31,6.31-13.06,14.09-13.02,34.16.15,68.33.31,102.49.46,7.86.04,15.42,3.58,20.07,9.92.26.36.51.72.76,1.1,1.68,2.55,2.32,4.49,5.35,17.19,2.67,11.18,4.96,21.34,5.42,23.4,2.51,11.15,2.97,13.12,3.02,13.23,0-.02-.03-.17-.04-.26.04.14.16.66.46,2.02,3.73,16.68,4.27,20.51,8,23.24,2.24,1.64,3.84,1.28,11.98,2.57,7.72,1.21,13.81,2.33,21.95,3.78,18.39,3.27,30.63,5.7,42.76,8.23,1.26.27,5.29,1.22,10.28,4.13,3.26,1.9,8.95,7.54,9.01,12.06Z"></path><path class="cls-1" d="M249.59,148.62c-4.09,12.26-6.31,25.38-6.31,39.01,0,31.5,11.82,60.23,31.28,82,19.73,22.09,47.31,37.01,78.34,40.4v39.66c-54.32-4.47-101.08-35.64-127.11-80.35-13.98-24.01-21.99-51.92-21.99-81.71,0-11.58,1.21-22.88,3.51-33.77,15.55-73.6,80.87-128.84,159.1-128.84v39.48c-54.37,0-100.51,35.24-116.82,84.12Z"></path><path class="cls-1" d="M66.71,412.97c0,9.54-7.74,17.27-17.27,17.27s-17.28-7.73-17.28-17.27c0-1.1.1-2.18.3-3.22l33.97.14c.19,1,.28,2.03.28,3.08Z"></path><path class="cls-1" d="M238.34,412.74c0,9.54-7.73,17.27-17.27,17.27s-17.27-7.73-17.27-17.27c0-.94.07-1.86.22-2.75,7.14,0,14.28-.05,21.42.05,4.73.07,8.93.15,12.7.08.13.85.2,1.73.2,2.62Z"></path><path class="cls-1" d="M225.79,270.3c-47.55-6.47-82.88-30.66-82.88-59.51,0-24.97,26.46-46.44,64.4-55.97-2.3,10.89-3.51,22.19-3.51,33.77,0,29.79,8.01,57.7,21.99,81.71Z"></path><line class="cls-1" x1="26.36" y1="321.2" x2="26.36" y2="384.64"></line><line class="cls-1" x1="26.36" y1="297.66" x2="26.36" y2="302.9"></line><line class="cls-1" x1="425.67" y1="50.13" x2="425.67" y2="25.02"></line><line class="cls-1" x1="425.67" y1="71.19" x2="425.67" y2="65.95"></line><path class="cls-1" d="M228.94,152.05c-4.39,12.16-6.31,25.38-6.31,39.01,0,31.5,11.33,58.11,30.05,80.51"></path></g></g></svg> 