<?xml version="1.0" encoding="UTF-8"?> <svg xmlns="http://www.w3.org/2000/svg" id="_Слой_2" data-name="Слой 2" viewBox="0 0 430.36 347.24"><defs><style> .cls-1 { stroke-width: 5px; } .cls-1, .cls-2 { stroke: #611884; stroke-miterlimit: 10; } .cls-1, .cls-3 { fill: #fff; } .cls-2 { fill: none; stroke-width: 10px; } .cls-4 { fill: #611884; } .cls-5 { fill: #611884; } </style></defs><g id="_Слой_1-2" data-name="Слой 1"><g><rect class="cls-2" x="5" y="5" width="293.15" height="233.43" rx="17.31" ry="17.31"></rect><path class="cls-5" d="M243.74,260.06c0,.52-.05,1.03-.15,1.52-.01.02-.01.04-.01.06-.31,1.44-1.03,2.73-2.04,3.74-1.37,1.37-3.25,2.21-5.33,2.21H66.94c-1.7,0-3.27-.56-4.53-1.53-1.82-1.36-3-3.54-3-6,0-2.08.84-3.96,2.21-5.32,1.36-1.37,3.24-2.21,5.32-2.21h169.27c4.16,0,7.53,3.37,7.53,7.53Z"></path><polygon class="cls-5" points="224.76 264.09 78.38 264.09 85.6 236.01 217.54 236.01 224.76 264.09"></polygon><path class="cls-2" d="M268.97,127.68c6.14,6.14,4.34,16.47-3.48,20.23-34.47,16.56-73.11,25.83-113.91,25.83s-79.44-9.27-113.91-25.83c-7.82-3.76-9.62-14.1-3.48-20.23l54.32-54.32c3.39-3.39,8.4-4.55,12.94-3,15.72,5.39,32.58,8.32,50.13,8.32s34.41-2.93,50.13-8.32c4.53-1.55,9.55-.39,12.94,3l54.32,54.32Z"></path><path class="cls-4" d="M382.53,225.48v98.23c0,12.98-10.56,23.53-23.53,23.53h-52.29c-4.83,0-9.31-1.46-13.05-3.96-5.68-3.8-9.63-10.01-10.36-17.17v-11.95c0-.48-.04-.95-.12-1.41-.67-4.02-4.18-7.09-8.39-7.09h-104.91c-8.75,0-16.39-4.8-20.43-11.91-1.96-3.42-3.07-7.38-3.07-11.59v-15.12h15v15.12c0,4.69,3.82,8.5,8.5,8.5h104.91c2.95,0,5.78.55,8.39,1.56,3.35,1.27,6.34,3.3,8.75,5.88,3.43,3.65,5.71,8.4,6.25,13.66v11.95c0,.48.04.96.12,1.42.68,4.03,4.19,7.11,8.41,7.11h52.29c4.7,0,8.53-3.83,8.53-8.53v-98.23c0-.28-.01-.55-.04-.82h15.02c.02.27.02.55.02.82Z"></path><g><path class="cls-1" d="M418.09,108.14v26.29c0,5.37-4.35,9.72-9.72,9.72h-7.64v58.22c0,14.07-11.41,25.47-25.47,25.47s-25.46-11.4-25.46-25.47v-58.22h-7.64c-5.37,0-9.72-4.35-9.72-9.72v-26.29c0-.1,0-.2.01-.3.07-2.52,1.11-4.8,2.75-6.48.55-.47,1.11-.93,1.68-1.38,7.18-5.66,15.63-9.78,24.87-11.83,4.35-.97,8.87-1.48,13.51-1.48s9.17.51,13.52,1.48c9.25,2.05,17.72,6.17,24.9,11.85.56.45,1.11.9,1.65,1.36,1.64,1.68,2.68,3.96,2.75,6.48.01.1.01.2.01.3Z"></path><rect class="cls-5" x="358.04" y="118.83" width="34.45" height="99.98" rx="17.23" ry="17.23"></rect><path class="cls-5" d="M408.1,110.43v20.16c0,4.12-3.34,7.45-7.45,7.45h-50.76c-4.12,0-7.45-3.34-7.45-7.45v-20.16c0-2.02.81-3.86,2.12-5.2.42-.36.85-.71,1.29-1.06,8.1-6.39,18.31-10.2,29.43-10.2s21.36,3.82,29.46,10.22c.43.34.85.69,1.27,1.04,1.31,1.34,2.12,3.17,2.12,5.2Z"></path></g><circle class="cls-3" cx="375.27" cy="191.54" r="5.93"></circle><path class="cls-5" d="M427.51,41.68h0c-3.46,3.46-8.94,3.82-12.82.84-10.91-8.4-24.58-13.39-39.43-13.39s-28.52,4.99-39.43,13.39c-3.87,2.98-9.36,2.61-12.82-.84h0c-4.2-4.2-3.67-11.1,1.05-14.71,14.19-10.87,31.94-17.33,51.19-17.33s37,6.46,51.19,17.33c4.72,3.61,5.25,10.51,1.05,14.71Z"></path><path class="cls-5" d="M398.82,67.19h0c-2.75,2.75-7.02,3.26-10.37,1.27-3.86-2.29-8.37-3.61-13.18-3.61s-9.32,1.32-13.18,3.61c-3.35,1.99-7.61,1.48-10.37-1.27h0c-3.88-3.88-3.15-10.43,1.55-13.25,6.43-3.85,13.96-6.07,22-6.07s15.57,2.22,22,6.07c4.71,2.82,5.43,9.37,1.55,13.25Z"></path></g></g></svg> 